<svg width="306" height="386" viewBox="0 0 306 386" fill="none" xmlns="http://www.w3.org/2000/svg">
<path d="M272.723 378.195C282.822 392.743 305.649 385.602 305.658 367.892L305.837 18.1255C305.845 2.82578 288.031 -5.56823 276.237 4.17768L6.61392 226.979C-7.03811 238.26 1.9868 260.409 19.6355 258.937L170.203 246.374C176.64 245.837 182.875 248.775 186.559 254.081L272.723 378.195Z" fill="white"/>
<path d="M207.724 328.334L89.1342 328.334C79.1479 328.334 71.0524 336.429 71.0524 346.416C71.0524 356.402 79.1479 364.498 89.1342 364.498L232.829 364.498L207.724 328.334Z" fill="#41C4FD"/>
<path d="M170.065 274.089L195.17 310.252L125.298 310.252C115.311 310.252 107.216 302.157 107.216 292.17C107.216 282.184 115.311 274.089 125.298 274.089L170.065 274.089Z" fill="#41C4FD"/>
</svg>
